<?xml version="1.0" standalone="no"?>
<!DOCTYPE svg PUBLIC "-//W3C//DTD SVG 20010904//EN"
 "http://www.w3.org/TR/2001/REC-SVG-20010904/DTD/svg10.dtd">
<svg version="1.0" xmlns="http://www.w3.org/2000/svg"
 width="500.000000pt" height="500.000000pt" viewBox="0 0 500.000000 500.000000"
 preserveAspectRatio="xMidYMid meet">

<g transform="translate(0.000000,500.000000) scale(0.100000,-0.100000)"
fill="#000000" stroke="none">
<path d="M1825 4334 c-16 -2 -73 -9 -125 -15 -430 -49 -801 -221 -975 -451
-96 -127 -145 -265 -145 -408 0 -264 144 -425 412 -461 135 -19 255 13 338 87
51 46 79 103 80 160 l0 42 -44 -5 c-93 -11 -157 21 -196 98 -44 86 -19 254 54
364 142 214 410 328 801 342 798 27 1331 -370 1451 -1082 22 -129 29 -387 15
-535 -57 -598 -306 -1032 -704 -1225 -170 -82 -384 -121 -580 -104 -76 6 -183
25 -195 34 -1 1 15 40 37 86 21 46 45 111 54 144 22 82 335 1867 348 1985 22
195 -22 306 -143 361 -49 22 -64 24 -223 23 -187 0 -253 -14 -247 -50 11 -81
12 -215 3 -294 -13 -106 -348 -2030 -355 -2037 -2 -2 -42 1 -87 7 -259 36
-443 -75 -443 -265 0 -103 60 -192 158 -235 150 -67 438 -45 622 46 l72 36
114 -37 c159 -52 281 -74 443 -81 545 -25 1051 174 1360 534 224 260 362 594
405 977 14 130 12 384 -5 502 -36 255 -119 471 -258 678 -78 114 -272 309
-397 398 -185 131 -475 256 -732 316 -196 46 -353 63 -623 66 -143 2 -273 1
-290 -1z"/>
</g>
</svg>
