<?xml version="1.0" standalone="no"?>
<!DOCTYPE svg PUBLIC "-//W3C//DTD SVG 20010904//EN"
 "http://www.w3.org/TR/2001/REC-SVG-20010904/DTD/svg10.dtd">
<svg version="1.0" xmlns="http://www.w3.org/2000/svg"
 width="24.000000pt" height="24.000000pt" viewBox="0 0 24.000000 24.000000"
 preserveAspectRatio="xMidYMid meet">

<g transform="translate(0.000000,24.000000) scale(0.100000,-0.100000)"
fill="#000000" stroke="none">
<path d="M79 173 c-13 -16 -12 -17 3 -4 11 8 28 11 43 7 21 -5 25 -12 25 -46
0 -29 -5 -42 -19 -50 -31 -16 -33 -13 -26 41 8 57 -8 63 -18 7 -3 -18 -8 -41
-12 -50 -10 -26 45 -24 73 2 24 23 30 78 10 98 -18 18 -64 15 -79 -5z"/>
</g>
</svg>
